<?xml version="1.0" standalone="no"?>
<!DOCTYPE svg PUBLIC "-//W3C//DTD SVG 20010904//EN"
 "http://www.w3.org/TR/2001/REC-SVG-20010904/DTD/svg10.dtd">
<svg version="1.0" xmlns="http://www.w3.org/2000/svg"
 width="260.000000pt" height="260.000000pt" viewBox="0 0 260.000000 260.000000"
 preserveAspectRatio="xMidYMid meet">
<metadata>
Created by potrace 1.11, written by Peter Selinger 2001-2013
</metadata>
<g transform="translate(0.000000,260.000000) scale(0.100000,-0.100000)"
fill="#000000" stroke="none">
<path d="M538 1685 l2 -215 -153 0 -153 0 -34 35 c-33 34 -35 35 -117 35 -67
0 -83 -3 -83 -15 0 -8 9 -15 20 -15 11 0 20 -7 20 -15 0 -8 -9 -15 -20 -15
-21 0 -27 -24 -9 -36 8 -4 7 -9 -2 -15 -11 -7 -10 -9 4 -9 19 0 23 20 6 37 -8
8 -1 11 26 10 21 -1 33 -3 26 -5 -6 -2 -11 -12 -11 -23 0 -14 7 -19 25 -19 18
0 25 5 25 19 0 11 -6 21 -12 24 -7 3 2 5 20 4 l32 0 0 -129 0 -128 -75 0 -75
0 0 -30 c0 -29 1 -30 50 -30 l50 0 0 -80 c0 -44 -4 -80 -9 -80 -5 0 -11 12
-13 28 -2 21 -8 27 -28 27 -19 0 -26 -6 -29 -25 -1 -14 -8 -28 -15 -32 -6 -4
13 -8 42 -8 l52 0 0 -140 c0 -118 -2 -140 -15 -140 -9 0 -15 9 -15 25 0 21 -5
25 -29 25 -24 0 -29 -5 -33 -30 l-5 -30 1301 2 c716 1 1280 3 1254 5 l-48 4 0
134 0 134 48 4 47 3 -47 2 -48 2 0 80 0 80 45 0 c45 0 45 0 45 35 l0 35 -70 0
-70 0 0 129 0 128 55 -1 c30 -1 63 2 72 6 17 6 17 7 1 7 -22 1 -24 31 -3 31 8
0 15 7 15 15 0 12 -15 15 -78 15 -76 0 -79 -1 -112 -35 l-34 -35 -153 0 -153
0 2 215 3 215 -152 0 c-95 0 -153 -4 -153 -10 0 -7 -162 -10 -465 -10 -303 0
-465 3 -465 10 0 6 -58 10 -152 10 l-153 0 3 -215z m270 103 l-3 -83 -125 0
-125 0 -3 83 -3 82 131 0 131 0 -3 -82z m1250 0 l-3 -83 -110 -3 c-160 -4
-155 -7 -155 82 0 40 3 76 7 79 3 4 64 7 135 7 l129 0 -3 -82z m-280 -10 l-3
-73 -475 0 -475 0 -3 73 -3 72 481 0 481 0 -3 -72z m-968 -202 l0 -105 -130 0
-130 0 0 105 0 104 130 0 130 0 0 -104z m970 0 l0 -104 -475 0 -475 1 0 103 0
104 475 0 475 0 0 -104z m280 -6 l0 -110 -45 0 c-29 0 -45 4 -46 13 0 10 -2
10 -6 0 -2 -7 -20 -13 -39 -13 -20 0 -34 5 -35 13 0 10 -2 10 -6 0 -2 -8 -22
-13 -44 -13 l-39 0 0 110 0 110 130 0 130 0 0 -110z m-1940 -75 c0 -10 -10
-15 -30 -15 -20 0 -30 5 -30 15 0 10 10 15 30 15 20 0 30 -5 30 -15z m40 6 c0
-6 -4 -13 -10 -16 -5 -3 -10 1 -10 9 0 9 5 16 10 16 6 0 10 -4 10 -9z m70
-168 l0 -123 -35 0 -35 0 0 128 c0 70 3 137 6 150 l7 23 28 -27 c29 -28 29
-28 29 -151z m2219 10 l1 -133 -35 0 -35 0 0 122 c0 119 1 123 27 150 25 26
28 27 35 11 3 -10 7 -78 7 -150z m21 151 c0 -8 -4 -12 -10 -9 -5 3 -10 10 -10
16 0 5 5 9 10 9 6 0 10 -7 10 -16z m80 1 c0 -10 -10 -15 -30 -15 -20 0 -30 5
-30 15 0 10 10 15 30 15 20 0 30 -5 30 -15z m-2450 -55 c0 -5 -7 -10 -15 -10
-8 0 -15 5 -15 10 0 6 7 10 15 10 8 0 15 -4 15 -10z m183 3 c-7 -2 -19 -2 -25
0 -7 3 -2 5 12 5 14 0 19 -2 13 -5z m85 0 c-10 -2 -28 -2 -40 0 -13 2 -5 4 17
4 22 1 32 -1 23 -4z m85 0 c-7 -2 -21 -2 -30 0 -10 3 -4 5 12 5 17 0 24 -2 18
-5z m64 1 c-3 -3 -12 -4 -19 -1 -8 3 -5 6 6 6 11 1 17 -2 13 -5z m1596 -1 c-7
-2 -21 -2 -30 0 -10 3 -4 5 12 5 17 0 24 -2 18 -5z m80 0 c-7 -2 -21 -2 -30 0
-10 3 -4 5 12 5 17 0 24 -2 18 -5z m95 0 c-10 -2 -28 -2 -40 0 -13 2 -5 4 17
4 22 1 32 -1 23 -4z m65 0 c-7 -2 -19 -2 -25 0 -7 3 -2 5 12 5 14 0 19 -2 13
-5z m-1880 -230 c-40 -2 -107 -2 -150 0 -43 1 -10 3 72 3 83 0 118 -2 78 -3z
m1075 0 c-130 -2 -346 -2 -480 0 -134 1 -27 2 237 2 264 0 373 -1 243 -2z
m750 0 c-43 -2 -113 -2 -155 0 -43 1 -8 3 77 3 85 0 120 -2 78 -3z m-1836 -38
l5 -25 -174 0 c-156 0 -174 2 -169 16 3 9 6 20 6 25 0 5 71 9 164 9 l164 0 4
-25z m1368 10 c0 -13 -65 -15 -525 -15 -460 0 -525 2 -525 15 0 13 65 15 525
15 460 0 525 -2 525 -15z m650 6 c0 -5 3 -16 6 -25 5 -14 -13 -16 -169 -16
l-174 0 5 25 4 25 164 0 c93 0 164 -4 164 -9z m-1730 -121 l0 -80 -49 0 -50 0
-3 38 c-3 32 -7 37 -30 40 -27 3 -28 1 -28 -37 l0 -41 -50 0 -50 0 0 80 0 80
130 0 130 0 0 -80z m285 28 c3 -29 5 -129 3 -223 l-3 -170 -135 0 -135 0 -2
223 -3 222 134 0 135 0 6 -52z m812 -170 l-2 -223 -147 -3 -148 -3 0 200 c0
122 4 202 10 206 6 3 10 15 10 26 0 18 8 19 140 19 l139 0 -2 -222z m273 136
l0 -85 -47 3 c-48 3 -48 3 -53 43 -4 35 -8 40 -30 40 -22 0 -26 -5 -30 -40
l-5 -40 -45 0 -45 0 -3 83 -3 82 131 0 130 0 0 -86z m-1650 -4 c0 -47 -4 -80
-10 -80 -5 0 -10 16 -10 35 0 23 -6 38 -15 41 -23 9 -45 -15 -45 -47 0 -19 -5
-29 -15 -29 -11 0 -15 11 -15 40 0 36 -2 40 -25 40 -22 0 -25 -4 -25 -40 0
-54 -27 -56 -32 -2 -3 32 -6 37 -28 37 -22 0 -25 -5 -28 -37 -2 -24 -8 -38
-17 -38 -9 0 -15 14 -17 38 -3 32 -6 37 -28 37 -21 0 -26 -6 -31 -40 -6 -39
-6 -39 -8 13 -1 40 2 52 14 52 9 0 15 9 14 23 0 21 -1 21 -9 2 -5 -11 -9 -15
-9 -8 -1 6 -4 18 -7 27 -5 14 13 16 170 16 l176 0 0 -80z m2016 64 c-3 -9 -6
-21 -7 -27 0 -7 -4 -3 -9 8 -8 19 -9 19 -9 -2 -1 -14 5 -23 14 -23 12 0 15
-12 14 -52 -2 -52 -2 -52 -8 -13 -5 34 -10 40 -31 40 -22 0 -25 -5 -28 -37 -4
-51 -30 -51 -34 -1 -5 65 -57 56 -58 -9 0 -18 -5 -28 -15 -28 -11 0 -15 11
-15 40 0 36 -2 40 -25 40 -22 0 -25 -4 -25 -40 0 -29 -4 -40 -15 -40 -10 0
-15 10 -15 29 0 32 -22 56 -45 47 -9 -3 -15 -18 -15 -41 0 -19 -4 -35 -10 -35
-6 0 -10 33 -10 80 l0 80 176 0 c157 0 175 -2 170 -16z m-1347 -51 c0 -16 -3
-22 -6 -15 -2 6 -15 12 -28 12 -13 0 -26 -6 -28 -12 -3 -7 -6 -1 -6 15 -1 24
2 27 34 27 32 0 35 -3 34 -27z m281 9 c0 -13 -8 -18 -27 -17 -25 0 -28 -4 -31
-37 -3 -36 -2 -38 27 -38 21 0 31 -5 31 -15 0 -10 -10 -15 -30 -15 l-30 0 0
-60 0 -60 30 0 c20 0 30 -5 30 -15 0 -10 -10 -15 -30 -15 -29 0 -30 -2 -30
-45 0 -43 1 -45 30 -45 17 0 30 -4 30 -10 0 -6 -48 -10 -125 -10 -69 0 -125 4
-125 8 0 5 14 7 30 4 30 -4 30 -4 30 47 0 50 -1 51 -30 51 l-30 0 0 145 0 145
125 0 c113 0 125 -2 125 -18z m100 -1 c0 -14 -6 -17 -26 -13 -16 3 -30 -1 -35
-9 -6 -10 -9 -6 -9 14 0 24 3 27 35 27 27 0 35 -4 35 -19z m-880 -51 c0 -23
-4 -30 -20 -30 -16 0 -20 7 -20 30 0 23 4 30 20 30 16 0 20 -7 20 -30z m480 0
c0 -20 -5 -30 -15 -30 -10 0 -15 10 -15 30 0 20 5 30 15 30 10 0 15 -10 15
-30z m285 0 c0 -16 -6 -26 -17 -28 -14 -3 -18 3 -18 28 0 25 4 31 18 28 11 -2
17 -12 17 -28z m100 0 c0 -16 -6 -26 -17 -28 -14 -3 -18 3 -18 28 0 25 4 31
18 28 11 -2 17 -12 17 -28z m505 0 c0 -23 -4 -30 -20 -30 -16 0 -20 7 -20 30
0 23 4 30 20 30 16 0 20 -7 20 -30z m-1835 -10 c0 -16 -6 -26 -17 -28 -14 -3
-18 3 -18 28 0 25 4 31 18 28 11 -2 17 -12 17 -28z m93 -3 c3 -22 -1 -27 -17
-27 -15 0 -21 6 -21 23 0 46 33 49 38 4z m82 3 c0 -20 -5 -30 -15 -30 -10 0
-15 10 -15 30 0 20 5 30 15 30 10 0 15 -10 15 -30z m90 0 c0 -20 -5 -30 -15
-30 -10 0 -15 10 -15 30 0 20 5 30 15 30 10 0 15 -10 15 -30z m1760 0 c0 -20
-5 -30 -15 -30 -10 0 -15 10 -15 30 0 20 5 30 15 30 10 0 15 -10 15 -30z m90
0 c0 -20 -5 -30 -15 -30 -10 0 -15 10 -15 30 0 20 5 30 15 30 10 0 15 -10 15
-30z m88 -3 c3 -22 -1 -27 -17 -27 -15 0 -21 6 -21 23 0 46 33 49 38 4z m92 3
c0 -23 -4 -30 -20 -30 -14 0 -20 7 -20 23 0 27 7 37 27 37 8 0 13 -12 13 -30z
m-2405 0 c0 -8 -8 -16 -17 -18 -13 -2 -18 3 -18 18 0 15 5 20 18 18 9 -2 17
-10 17 -18z m1071 -307 c-3 -8 -19 -12 -38 -11 l-33 1 33 4 c31 4 32 5 32 54
0 48 -1 49 -30 49 -20 0 -30 5 -30 15 0 10 10 15 30 15 l30 0 0 60 0 60 -30 0
c-42 0 -40 28 3 32 l32 3 3 -135 c1 -74 0 -140 -2 -147z m384 262 c0 -10 -11
-15 -35 -15 -24 0 -35 5 -35 15 0 10 11 15 35 15 24 0 35 -5 35 -15z m-1052
-142 c-1 -76 -3 -114 -5 -85 -4 52 -4 52 -39 52 l-34 0 0 -50 c0 -27 -4 -50
-10 -50 -5 0 -10 23 -10 50 l0 50 -35 0 -35 0 0 -50 c0 -27 -4 -50 -10 -50 -5
0 -10 23 -10 50 0 49 -1 50 -30 50 -29 0 -30 -1 -30 -50 0 -33 -4 -50 -12 -50
-9 0 -12 15 -10 50 l4 50 -36 0 -35 0 -4 -52 c-2 -29 -4 9 -5 85 l-2 137 175
0 175 0 -2 -137z m277 2 l0 -130 -127 -3 -128 -3 0 136 0 136 128 -3 127 -3 0
-130z m1375 0 l0 -136 -127 3 -128 3 -3 119 c-1 66 0 126 2 133 4 10 37 13
131 13 l125 0 0 -135z m368 -2 c-1 -76 -3 -114 -5 -85 l-4 52 -35 0 -36 0 4
-50 c2 -35 -1 -50 -9 -50 -9 0 -13 17 -13 50 0 49 -1 50 -30 50 -29 0 -30 -1
-30 -50 0 -27 -4 -50 -10 -50 -5 0 -10 23 -10 50 l0 50 -35 0 -35 0 0 -50 c0
-27 -4 -50 -10 -50 -5 0 -10 23 -10 50 l0 50 -34 0 c-35 0 -35 0 -39 -52 -2
-29 -4 9 -5 85 l-2 137 175 0 175 0 -2 -137z m-1368 66 c0 -43 -3 -50 -17 -47
-14 2 -19 15 -21 51 -3 42 -1 47 17 47 18 0 21 -6 21 -51z m288 -2 c3 -42 1
-47 -17 -47 -18 0 -21 6 -21 51 0 43 3 50 18 47 13 -2 18 -15 20 -51z m97 3
c0 -35 -4 -45 -17 -48 -15 -3 -18 4 -18 48 0 44 3 51 18 48 13 -3 17 -13 17
-48z m15 -70 c0 -5 -16 -10 -35 -10 -19 0 -35 5 -35 10 0 6 16 10 35 10 19 0
35 -4 35 -10z m-15 -60 c0 -25 -5 -36 -17 -38 -15 -3 -18 4 -18 38 0 34 3 41
18 38 12 -2 17 -13 17 -38z m-385 -11 c0 -33 -3 -40 -17 -37 -13 2 -19 14 -21
41 -3 32 0 37 17 37 18 0 21 -6 21 -41z m100 1 c0 -29 -4 -40 -15 -40 -11 0
-15 11 -15 40 0 29 4 40 15 40 11 0 15 -11 15 -40z m190 5 c0 -28 -4 -35 -20
-35 -16 0 -20 7 -20 35 0 28 4 35 20 35 16 0 20 -7 20 -35z m-1220 -10 c0 -31
-3 -35 -25 -35 -22 0 -25 4 -25 35 0 31 3 35 25 35 22 0 25 -4 25 -35z m80 0
c0 -28 -4 -35 -20 -35 -16 0 -20 7 -20 35 0 28 4 35 20 35 16 0 20 -7 20 -35z
m90 0 c0 -31 -3 -35 -25 -35 -22 0 -25 4 -25 35 0 31 3 35 25 35 22 0 25 -4
25 -35z m90 0 c0 -31 -3 -35 -25 -35 -22 0 -25 4 -25 35 0 31 3 35 25 35 22 0
25 -4 25 -35z m1760 0 c0 -31 -3 -35 -25 -35 -22 0 -25 4 -25 35 0 31 3 35 25
35 22 0 25 -4 25 -35z m90 0 c0 -31 -3 -35 -25 -35 -22 0 -25 4 -25 35 0 31 3
35 25 35 22 0 25 -4 25 -35z m80 0 c0 -28 -4 -35 -20 -35 -16 0 -20 7 -20 35
0 28 4 35 20 35 16 0 20 -7 20 -35z m90 0 c0 -31 -3 -35 -25 -35 -22 0 -25 4
-25 35 0 31 3 35 25 35 22 0 25 -4 25 -35z m-2410 -25 c0 -5 -9 -10 -20 -10
-11 0 -20 5 -20 10 0 6 9 10 20 10 11 0 20 -4 20 -10z m1460 -20 c0 -5 -16
-10 -35 -10 -19 0 -35 5 -35 10 0 6 16 10 35 10 19 0 35 -4 35 -10z"/>
<path d="M661 1816 c-7 -8 -11 -32 -9 -53 2 -31 7 -39 26 -41 22 -3 23 -1 20
49 -3 54 -16 70 -37 45z m29 -47 c0 -28 -4 -39 -12 -37 -24 8 -22 78 2 78 5 0
10 -18 10 -41z"/>
<path d="M600 1765 c0 -33 4 -45 15 -45 11 0 15 12 15 45 0 33 -4 45 -15 45
-11 0 -15 -12 -15 -45z m17 -12 c-3 -10 -5 -4 -5 12 0 17 2 24 5 18 2 -7 2
-21 0 -30z"/>
<path d="M732 1768 c4 -59 28 -63 28 -4 0 35 -4 46 -16 46 -12 0 -14 -9 -12
-42z m15 -15 c-3 -10 -5 -4 -5 12 0 17 2 24 5 18 2 -7 2 -21 0 -30z"/>
<path d="M1907 1823 c-4 -3 -7 -28 -7 -55 0 -45 2 -49 23 -46 18 2 23 10 25
41 4 47 -20 82 -41 60z m31 -53 c-5 -49 -28 -51 -28 -2 0 21 3 42 7 46 13 12
24 -12 21 -44z"/>
<path d="M1842 1768 c4 -59 28 -63 28 -4 0 35 -4 46 -16 46 -12 0 -14 -9 -12
-42z m15 -15 c-3 -10 -5 -4 -5 12 0 17 2 24 5 18 2 -7 2 -21 0 -30z"/>
<path d="M1980 1764 c0 -59 24 -55 28 4 2 33 0 42 -12 42 -12 0 -16 -11 -16
-46z m17 -11 c-3 -10 -5 -4 -5 12 0 17 2 24 5 18 2 -7 2 -21 0 -30z"/>
<path d="M852 1828 c-7 -7 -12 -34 -12 -60 0 -45 2 -48 25 -48 25 0 26 2 23
57 -3 57 -14 73 -36 51z m28 -54 c0 -32 -4 -44 -15 -44 -11 0 -15 11 -15 43 0
24 3 47 6 50 14 14 24 -6 24 -49z"/>
<path d="M943 1833 c-8 -3 -13 -24 -13 -59 0 -51 1 -54 25 -54 24 0 25 3 25
54 0 53 -10 68 -37 59z m27 -59 c0 -32 -4 -44 -15 -44 -11 0 -15 11 -15 43 0
24 3 47 6 50 14 14 24 -6 24 -49z"/>
<path d="M1027 1833 c-4 -3 -7 -30 -7 -60 0 -50 1 -53 25 -53 23 0 25 3 25 48
0 55 -21 87 -43 65z m33 -59 c0 -32 -4 -44 -15 -44 -11 0 -15 11 -15 43 0 24
3 47 6 50 14 14 24 -6 24 -49z"/>
<path d="M1112 1828 c-7 -7 -12 -34 -12 -60 0 -45 2 -48 25 -48 25 0 26 2 23
57 -3 57 -14 73 -36 51z m28 -54 c0 -32 -4 -44 -15 -44 -11 0 -15 11 -15 43 0
24 3 47 6 50 14 14 24 -6 24 -49z"/>
<path d="M1197 1833 c-4 -3 -7 -30 -7 -60 0 -50 1 -53 25 -53 23 0 25 3 25 48
0 55 -21 87 -43 65z m33 -59 c0 -32 -4 -44 -15 -44 -11 0 -15 11 -15 43 0 24
3 47 6 50 14 14 24 -6 24 -49z"/>
<path d="M1282 1828 c-7 -7 -12 -34 -12 -60 0 -45 2 -48 25 -48 25 0 26 2 23
57 -3 57 -14 73 -36 51z m28 -54 c0 -32 -4 -44 -15 -44 -11 0 -15 11 -15 43 0
24 3 47 6 50 14 14 24 -6 24 -49z"/>
<path d="M1373 1833 c-9 -3 -13 -25 -13 -64 0 -56 1 -59 25 -59 24 0 25 3 25
59 0 58 -9 74 -37 64z m27 -58 c0 -33 -4 -45 -15 -45 -11 0 -15 12 -15 45 0
33 4 45 15 45 11 0 15 -12 15 -45z"/>
<path d="M1450 1825 c-6 -7 -10 -35 -8 -62 3 -41 6 -48 26 -51 21 -3 22 0 22
56 0 62 -16 86 -40 57z m30 -50 c0 -33 -4 -45 -15 -45 -11 0 -15 11 -15 38 0
21 3 42 7 45 16 16 23 4 23 -38z"/>
<path d="M1543 1833 c-9 -3 -13 -25 -13 -64 0 -56 1 -59 25 -59 24 0 25 3 25
59 0 58 -9 74 -37 64z m27 -58 c0 -33 -4 -45 -15 -45 -11 0 -15 12 -15 45 0
33 4 45 15 45 11 0 15 -12 15 -45z"/>
<path d="M1622 1828 c-7 -7 -12 -34 -12 -60 0 -47 1 -48 30 -48 28 0 30 2 30
41 0 40 -14 79 -28 79 -5 0 -13 -5 -20 -12z m28 -53 c0 -33 -4 -45 -15 -45
-11 0 -15 11 -15 38 0 21 3 42 7 45 16 16 23 4 23 -38z"/>
<path d="M1711 1827 c-6 -6 -11 -33 -11 -59 0 -45 2 -48 25 -48 24 0 25 3 25
54 0 55 -15 77 -39 53z m29 -53 c0 -32 -4 -44 -15 -44 -11 0 -15 11 -15 43 0
24 3 47 6 50 14 14 24 -6 24 -49z"/>
<path d="M600 1640 c0 -20 5 -30 15 -30 10 0 15 10 15 30 0 20 -5 30 -15 30
-10 0 -15 -10 -15 -30z m17 -12 c-3 -8 -6 -5 -6 6 -1 11 2 17 5 13 3 -3 4 -12
1 -19z"/>
<path d="M737 1663 c-13 -13 -7 -53 8 -53 10 0 15 10 15 30 0 29 -9 38 -23 23z
m10 -35 c-3 -8 -6 -5 -6 6 -1 11 2 17 5 13 3 -3 4 -12 1 -19z"/>
<path d="M650 1635 c0 -20 5 -25 25 -25 20 0 25 5 25 25 0 20 -5 25 -25 25
-20 0 -25 -5 -25 -25z m40 -1 c0 -9 -5 -14 -12 -12 -18 6 -21 28 -4 28 9 0 16
-7 16 -16z"/>
<path d="M657 1573 c-4 -3 -7 -26 -7 -50 0 -39 2 -43 25 -43 23 0 25 3 25 50
0 42 -3 50 -18 50 -10 0 -22 -3 -25 -7z m33 -44 c0 -28 -4 -39 -12 -37 -24 8
-22 78 2 78 5 0 10 -18 10 -41z"/>
<path d="M600 1520 c0 -29 4 -40 15 -40 11 0 15 11 15 40 0 29 -4 40 -15 40
-11 0 -15 -11 -15 -40z m17 -7 c-3 -10 -5 -4 -5 12 0 17 2 24 5 18 2 -7 2 -21
0 -30z"/>
<path d="M730 1520 c0 -29 4 -40 15 -40 11 0 15 11 15 40 0 29 -4 40 -15 40
-11 0 -15 -11 -15 -40z m17 -7 c-3 -10 -5 -4 -5 12 0 17 2 24 5 18 2 -7 2 -21
0 -30z"/>
<path d="M840 1640 c0 -25 4 -30 25 -30 21 0 25 5 25 30 0 25 -4 30 -25 30
-21 0 -25 -5 -25 -30z m40 0 c0 -11 -7 -20 -15 -20 -8 0 -15 9 -15 20 0 11 7
20 15 20 8 0 15 -9 15 -20z"/>
<path d="M930 1640 c0 -25 4 -30 25 -30 21 0 25 5 25 30 0 25 -4 30 -25 30
-21 0 -25 -5 -25 -30z m40 0 c0 -11 -7 -20 -15 -20 -8 0 -15 9 -15 20 0 11 7
20 15 20 8 0 15 -9 15 -20z"/>
<path d="M1020 1640 c0 -25 4 -30 25 -30 21 0 25 5 25 30 0 25 -4 30 -25 30
-21 0 -25 -5 -25 -30z m40 0 c0 -11 -7 -20 -15 -20 -8 0 -15 9 -15 20 0 11 7
20 15 20 8 0 15 -9 15 -20z"/>
<path d="M1100 1635 c0 -31 3 -35 25 -35 22 0 25 4 25 35 0 31 -3 35 -25 35
-22 0 -25 -4 -25 -35z m40 0 c0 -26 -14 -33 -25 -15 -9 14 1 40 15 40 5 0 10
-11 10 -25z"/>
<path d="M1190 1635 c0 -31 3 -35 25 -35 22 0 25 4 25 35 0 31 -3 35 -25 35
-22 0 -25 -4 -25 -35z m35 0 c0 -10 -6 -20 -12 -22 -8 -3 -13 5 -13 22 0 17 5
25 13 23 6 -3 12 -13 12 -23z"/>
<path d="M1270 1640 c0 -25 4 -30 25 -30 21 0 25 5 25 30 0 25 -4 30 -25 30
-21 0 -25 -5 -25 -30z m40 0 c0 -11 -7 -20 -15 -20 -8 0 -15 9 -15 20 0 11 7
20 15 20 8 0 15 -9 15 -20z"/>
<path d="M1360 1640 c0 -25 4 -30 25 -30 21 0 25 5 25 30 0 25 -4 30 -25 30
-21 0 -25 -5 -25 -30z m40 0 c0 -11 -7 -20 -15 -20 -8 0 -15 9 -15 20 0 11 7
20 15 20 8 0 15 -9 15 -20z"/>
<path d="M1440 1640 c0 -25 4 -30 25 -30 21 0 25 5 25 30 0 25 -4 30 -25 30
-21 0 -25 -5 -25 -30z m40 0 c0 -11 -7 -20 -15 -20 -15 0 -21 21 -8 33 12 13
23 7 23 -13z"/>
<path d="M1530 1635 c0 -31 3 -35 25 -35 22 0 25 4 25 35 0 31 -3 35 -25 35
-22 0 -25 -4 -25 -35z m38 3 c-2 -13 -7 -23 -13 -23 -5 0 -11 10 -13 23 -2 15
2 22 13 22 11 0 15 -7 13 -22z"/>
<path d="M1610 1640 c0 -27 3 -30 30 -30 27 0 30 3 30 30 0 27 -3 30 -30 30
-27 0 -30 -3 -30 -30z m40 0 c0 -11 -7 -20 -15 -20 -15 0 -21 21 -8 33 12 13
23 7 23 -13z"/>
<path d="M1700 1640 c0 -25 4 -30 25 -30 21 0 25 5 25 30 0 25 -4 30 -25 30
-21 0 -25 -5 -25 -30z m40 0 c0 -11 -7 -20 -15 -20 -8 0 -15 9 -15 20 0 11 7
20 15 20 8 0 15 -9 15 -20z"/>
<path d="M851 1567 c-6 -6 -11 -28 -11 -49 0 -34 3 -38 25 -38 23 0 25 4 25
44 0 45 -17 65 -39 43z m29 -43 c0 -24 -5 -34 -15 -34 -10 0 -15 10 -15 33 0
19 3 37 6 40 13 13 24 -5 24 -39z"/>
<path d="M943 1573 c-8 -3 -13 -22 -13 -49 0 -40 2 -44 25 -44 23 0 25 4 25
44 0 43 -11 58 -37 49z m27 -49 c0 -24 -5 -34 -15 -34 -10 0 -15 10 -15 33 0
19 3 37 6 40 13 13 24 -5 24 -39z"/>
<path d="M1027 1573 c-4 -3 -7 -26 -7 -50 0 -39 2 -43 25 -43 22 0 25 4 25 38
0 46 -23 75 -43 55z m33 -49 c0 -24 -5 -34 -15 -34 -10 0 -15 10 -15 33 0 19
3 37 6 40 13 13 24 -5 24 -39z"/>
<path d="M1112 1568 c-7 -7 -12 -29 -12 -50 0 -34 3 -38 26 -38 24 0 25 2 22
47 -3 48 -15 62 -36 41z m28 -44 c0 -24 -5 -34 -15 -34 -10 0 -15 10 -15 33 0
19 3 37 6 40 13 13 24 -5 24 -39z"/>
<path d="M1197 1573 c-4 -3 -7 -26 -7 -50 0 -39 2 -43 25 -43 22 0 25 4 25 38
0 46 -23 75 -43 55z m33 -49 c0 -24 -5 -34 -15 -34 -10 0 -15 10 -15 33 0 19
3 37 6 40 13 13 24 -5 24 -39z"/>
<path d="M1282 1568 c-7 -7 -12 -29 -12 -50 0 -34 3 -38 26 -38 24 0 25 2 22
47 -3 48 -15 62 -36 41z m28 -44 c0 -24 -5 -34 -15 -34 -10 0 -15 10 -15 33 0
19 3 37 6 40 13 13 24 -5 24 -39z"/>
<path d="M1373 1573 c-8 -3 -13 -22 -13 -49 0 -40 2 -44 25 -44 23 0 25 4 25
44 0 43 -11 58 -37 49z m27 -48 c0 -24 -5 -35 -15 -35 -10 0 -15 11 -15 35 0
24 5 35 15 35 10 0 15 -11 15 -35z"/>
<path d="M1452 1568 c-7 -7 -12 -29 -12 -50 0 -34 3 -38 26 -38 24 0 25 2 22
47 -3 48 -15 62 -36 41z m28 -43 c0 -24 -5 -35 -15 -35 -15 0 -22 50 -8 63 15
15 23 5 23 -28z"/>
<path d="M1543 1573 c-8 -3 -13 -22 -13 -49 0 -40 2 -44 25 -44 23 0 25 4 25
44 0 43 -11 58 -37 49z m27 -48 c0 -24 -5 -35 -15 -35 -10 0 -15 11 -15 35 0
24 5 35 15 35 10 0 15 -11 15 -35z"/>
<path d="M1622 1568 c-7 -7 -12 -29 -12 -50 0 -36 2 -38 30 -38 27 0 30 3 30
31 0 32 -15 69 -28 69 -5 0 -13 -5 -20 -12z m28 -44 c0 -24 -4 -34 -12 -32
-24 8 -22 68 2 68 5 0 10 -16 10 -36z"/>
<path d="M1711 1567 c-6 -6 -11 -28 -11 -49 0 -34 3 -38 25 -38 23 0 25 4 25
44 0 45 -17 65 -39 43z m29 -43 c0 -24 -5 -34 -15 -34 -10 0 -15 10 -15 33 0
19 3 37 6 40 13 13 24 -5 24 -39z"/>
<path d="M1840 1640 c0 -20 5 -30 15 -30 10 0 15 10 15 30 0 20 -5 30 -15 30
-10 0 -15 -10 -15 -30z m17 -12 c-3 -8 -6 -5 -6 6 -1 11 2 17 5 13 3 -3 4 -12
1 -19z"/>
<path d="M1980 1641 c0 -21 5 -31 16 -31 11 0 14 8 12 27 -4 39 -28 42 -28 4z
m17 -13 c-3 -8 -6 -5 -6 6 -1 11 2 17 5 13 3 -3 4 -12 1 -19z"/>
<path d="M1900 1635 c0 -20 5 -25 25 -25 20 0 25 5 25 25 0 20 -5 25 -25 25
-20 0 -25 -5 -25 -25z m38 3 c-6 -18 -28 -21 -28 -4 0 9 7 16 16 16 9 0 14 -5
12 -12z"/>
<path d="M1900 1531 c0 -48 2 -51 26 -51 24 0 25 2 22 48 -3 40 -6 47 -25 50
-21 3 -23 0 -23 -47z m38 -4 c2 -28 -1 -37 -12 -37 -12 0 -16 11 -16 41 0 52
24 48 28 -4z"/>
<path d="M1840 1520 c0 -29 4 -40 15 -40 11 0 15 11 15 40 0 29 -4 40 -15 40
-11 0 -15 -11 -15 -40z m17 -17 c-3 -10 -5 -2 -5 17 0 19 2 27 5 18 2 -10 2
-26 0 -35z"/>
<path d="M1980 1520 c0 -29 4 -40 15 -40 11 0 15 11 15 40 0 29 -4 40 -15 40
-11 0 -15 -11 -15 -40z m17 -7 c-3 -10 -5 -4 -5 12 0 17 2 24 5 18 2 -7 2 -21
0 -30z"/>
<path d="M182 1430 c0 -14 2 -19 5 -12 2 6 2 18 0 25 -3 6 -5 1 -5 -13z"/>
<path d="M212 1400 c0 -14 2 -19 5 -12 2 6 2 18 0 25 -3 6 -5 1 -5 -13z"/>
<path d="M181 1354 c0 -11 3 -14 6 -6 3 7 2 16 -1 19 -3 4 -6 -2 -5 -13z"/>
<path d="M212 1330 c0 -14 2 -19 5 -12 2 6 2 18 0 25 -3 6 -5 1 -5 -13z"/>
<path d="M182 1270 c0 -14 2 -19 5 -12 2 6 2 18 0 25 -3 6 -5 1 -5 -13z"/>
<path d="M212 1250 c0 -14 2 -19 5 -12 2 6 2 18 0 25 -3 6 -5 1 -5 -13z"/>
<path d="M2422 1430 c0 -14 2 -19 5 -12 2 6 2 18 0 25 -3 6 -5 1 -5 -13z"/>
<path d="M2392 1400 c0 -14 2 -19 5 -12 2 6 2 18 0 25 -3 6 -5 1 -5 -13z"/>
<path d="M2422 1350 c0 -14 2 -19 5 -12 2 6 2 18 0 25 -3 6 -5 1 -5 -13z"/>
<path d="M2392 1330 c0 -14 2 -19 5 -12 2 6 2 18 0 25 -3 6 -5 1 -5 -13z"/>
<path d="M2422 1270 c0 -14 2 -19 5 -12 2 6 2 18 0 25 -3 6 -5 1 -5 -13z"/>
<path d="M2392 1250 c0 -14 2 -19 5 -12 2 6 2 18 0 25 -3 6 -5 1 -5 -13z"/>
<path d="M531 1113 c1 -22 2 -23 6 -8 3 11 10 23 17 27 7 5 5 8 -6 8 -13 0
-18 -7 -17 -27z"/>
<path d="M686 1132 c7 -4 14 -16 17 -27 4 -15 5 -14 6 8 1 20 -4 27 -16 27
-12 0 -14 -3 -7 -8z"/>
<path d="M534 1035 c-3 -8 -4 -20 -1 -27 3 -7 6 -3 6 9 1 12 7 24 14 26 9 4 9
6 -1 6 -7 1 -15 -6 -18 -14z"/>
<path d="M686 1043 c7 -4 14 -17 17 -28 5 -16 5 -15 4 4 -1 14 -9 26 -17 28
-10 3 -11 2 -4 -4z"/>
<path d="M824 1130 c2 -16 20 -14 24 2 3 10 2 10 -6 -1 -7 -9 -11 -10 -15 -2
-4 7 -5 8 -3 1z"/>
<path d="M870 1131 c0 -6 4 -13 10 -16 6 -3 7 1 4 9 -7 18 -14 21 -14 7z"/>
<path d="M790 1030 c0 -36 3 -40 25 -40 23 0 25 4 25 40 0 36 -2 40 -25 40
-22 0 -25 -4 -25 -40z m40 0 c0 -20 -5 -30 -15 -30 -10 0 -15 10 -15 30 0 20
5 30 15 30 10 0 15 -10 15 -30z"/>
<path d="M887 1064 c-4 -4 -7 -22 -7 -41 0 -30 3 -33 31 -33 29 0 30 2 27 38
-2 28 -8 38 -23 40 -12 2 -24 0 -28 -4z m41 -37 c3 -22 -1 -27 -17 -27 -17 0
-21 6 -21 31 0 24 4 30 18 27 10 -2 18 -14 20 -31z"/>
<path d="M977 1064 c-4 -4 -7 -22 -7 -41 0 -30 3 -33 31 -33 29 0 30 2 27 38
-2 28 -8 38 -23 40 -12 2 -24 0 -28 -4z m41 -37 c3 -22 -1 -27 -17 -27 -17 0
-21 6 -21 31 0 24 4 30 18 27 10 -2 18 -14 20 -31z"/>
<path d="M790 900 c0 -57 1 -60 25 -60 24 0 25 3 25 60 0 57 -1 60 -25 60 -24
0 -25 -3 -25 -60z m40 0 c0 -38 -4 -50 -15 -50 -11 0 -15 12 -15 50 0 38 4 50
15 50 11 0 15 -12 15 -50z"/>
<path d="M880 900 l0 -60 30 0 30 0 0 60 0 60 -30 0 -30 0 0 -60z m48 3 c-2
-36 -7 -49 -20 -51 -15 -3 -18 4 -18 47 0 45 3 51 21 51 18 0 20 -5 17 -47z"/>
<path d="M970 900 l0 -60 30 0 30 0 0 60 0 60 -30 0 -30 0 0 -60z m48 3 c-2
-36 -7 -49 -20 -51 -15 -3 -18 4 -18 47 0 45 3 51 21 51 18 0 20 -5 17 -47z"/>
<path d="M790 760 c0 -49 1 -50 30 -50 29 0 30 1 30 50 0 49 -1 50 -30 50 -29
0 -30 -1 -30 -50z m45 0 c0 -25 -5 -36 -17 -38 -15 -3 -18 4 -18 38 0 34 3 41
18 38 12 -2 17 -13 17 -38z"/>
<path d="M880 760 c0 -49 1 -50 30 -50 29 0 30 1 30 50 0 49 -1 50 -30 50 -29
0 -30 -1 -30 -50z m50 5 c0 -28 -4 -35 -20 -35 -16 0 -20 7 -20 35 0 28 4 35
20 35 16 0 20 -7 20 -35z"/>
<path d="M970 760 c0 -49 1 -50 30 -50 29 0 30 1 30 50 0 49 -1 50 -30 50 -29
0 -30 -1 -30 -50z m50 5 c0 -28 -4 -35 -20 -35 -16 0 -20 7 -20 35 0 28 4 35
20 35 16 0 20 -7 20 -35z"/>
<path d="M1604 1130 c2 -16 20 -14 24 2 3 10 2 10 -6 -1 -7 -9 -11 -10 -15 -2
-4 7 -5 8 -3 1z"/>
<path d="M1587 1064 c-4 -4 -7 -22 -7 -41 0 -30 3 -33 31 -33 29 0 30 2 27 38
-2 28 -8 38 -23 40 -12 2 -24 0 -28 -4z m41 -37 c3 -22 -1 -27 -17 -27 -17 0
-21 6 -21 31 0 24 4 30 18 27 10 -2 18 -14 20 -31z"/>
<path d="M1677 1064 c-4 -4 -7 -22 -7 -41 0 -30 3 -33 31 -33 29 0 30 2 27 38
-2 28 -8 38 -23 40 -12 2 -24 0 -28 -4z m43 -34 c0 -23 -4 -30 -20 -30 -14 0
-20 7 -20 23 0 27 7 37 27 37 8 0 13 -12 13 -30z"/>
<path d="M1767 1064 c-4 -4 -7 -22 -7 -41 0 -30 3 -33 31 -33 29 0 30 2 27 38
-2 28 -8 38 -23 40 -12 2 -24 0 -28 -4z m43 -34 c0 -23 -4 -30 -20 -30 -14 0
-20 7 -20 23 0 27 7 37 27 37 8 0 13 -12 13 -30z"/>
<path d="M1580 900 l0 -60 30 0 30 0 0 60 0 60 -30 0 -30 0 0 -60z m48 -3 c3
-42 1 -47 -17 -47 -18 0 -21 6 -21 51 0 43 3 50 18 47 13 -2 18 -15 20 -51z"/>
<path d="M1670 900 l0 -60 30 0 30 0 0 60 0 60 -30 0 -30 0 0 -60z m50 0 c0
-43 -3 -50 -20 -50 -17 0 -20 7 -20 50 0 43 3 50 20 50 17 0 20 -7 20 -50z"/>
<path d="M1760 900 l0 -60 30 0 30 0 0 60 0 60 -30 0 -30 0 0 -60z m50 -1 c0
-43 -3 -50 -17 -47 -14 2 -19 15 -21 51 -3 42 -1 47 17 47 18 0 21 -6 21 -51z"/>
<path d="M1580 760 c0 -49 1 -50 30 -50 29 0 30 1 30 50 0 49 -1 50 -30 50
-29 0 -30 -1 -30 -50z m50 0 c0 -33 -3 -40 -20 -40 -17 0 -20 7 -20 40 0 33 3
40 20 40 17 0 20 -7 20 -40z"/>
<path d="M1672 763 c3 -44 5 -48 31 -51 26 -3 27 -2 27 47 0 50 -1 51 -31 51
-30 0 -30 -1 -27 -47z m48 -4 c0 -33 -3 -40 -17 -37 -13 2 -19 14 -21 41 -3
32 0 37 17 37 18 0 21 -6 21 -41z"/>
<path d="M1762 763 c3 -44 5 -48 31 -51 26 -3 27 -2 27 47 0 50 -1 51 -31 51
-30 0 -30 -1 -27 -47z m48 -4 c0 -33 -3 -40 -17 -37 -13 2 -19 14 -21 41 -3
32 0 37 17 37 18 0 21 -6 21 -41z"/>
<path d="M1904 1125 c-3 -8 -4 -20 -1 -27 3 -7 6 -3 6 9 1 12 7 24 14 26 9 4
9 6 -1 6 -7 1 -15 -6 -18 -14z"/>
<path d="M2056 1133 c7 -4 14 -17 17 -28 5 -16 5 -15 4 4 -1 14 -9 26 -17 28
-10 3 -11 2 -4 -4z"/>
<path d="M1902 1020 c0 -14 2 -19 5 -12 2 6 2 18 0 25 -3 6 -5 1 -5 -13z"/>
<path d="M2072 1020 c0 -14 2 -19 5 -12 2 6 2 18 0 25 -3 6 -5 1 -5 -13z"/>
<path d="M211 1103 c-1 -14 5 -23 14 -23 9 0 15 9 14 23 0 21 -1 21 -8 2 l-8
-20 -5 20 c-5 18 -6 18 -7 -2z"/>
<path d="M301 1103 c-1 -14 5 -23 14 -23 9 0 15 9 14 23 0 21 -1 21 -8 2 l-8
-20 -5 20 c-5 18 -6 18 -7 -2z"/>
<path d="M351 1103 c-1 -14 5 -23 14 -23 9 0 15 9 14 23 0 21 -1 21 -8 2 l-8
-20 -5 20 c-5 18 -6 18 -7 -2z"/>
<path d="M434 1101 c2 -25 26 -24 25 1 0 21 -1 22 -8 3 -7 -16 -9 -17 -13 -5
-4 11 -5 12 -4 1z"/>
<path d="M2151 1103 c-1 -14 5 -23 14 -23 9 0 15 9 14 23 0 21 -1 21 -8 2 l-8
-20 -5 20 c-5 18 -6 18 -7 -2z"/>
<path d="M2231 1103 c-1 -14 5 -23 14 -23 9 0 15 9 14 23 0 21 -1 21 -8 2 l-8
-20 -5 20 c-5 18 -6 18 -7 -2z"/>
<path d="M2281 1103 c-1 -14 5 -23 14 -23 9 0 15 9 14 23 0 21 -1 21 -8 2 l-8
-20 -5 20 c-5 18 -6 18 -7 -2z"/>
<path d="M2371 1103 c-1 -14 5 -23 14 -23 9 0 15 9 14 23 0 21 -1 21 -8 2 l-8
-20 -5 20 c-5 18 -6 18 -7 -2z"/>
<path d="M1180 1030 c0 -38 2 -40 30 -40 25 0 30 4 30 24 0 40 -11 56 -36 56
-21 0 -24 -4 -24 -40z m45 0 c0 -16 -6 -26 -17 -28 -14 -3 -18 3 -18 28 0 25
4 31 18 28 11 -2 17 -12 17 -28z"/>
<path d="M1277 1063 c-4 -3 -7 -21 -7 -40 0 -30 3 -33 30 -33 25 0 30 4 30 24
0 13 -3 31 -6 40 -6 16 -35 22 -47 9z m38 -33 c0 -16 -6 -26 -17 -28 -14 -3
-18 3 -18 28 0 25 4 31 18 28 11 -2 17 -12 17 -28z"/>
<path d="M1180 900 c0 -57 1 -60 25 -60 24 0 25 3 25 60 0 57 -1 60 -25 60
-24 0 -25 -3 -25 -60z m40 0 c0 -38 -4 -50 -15 -50 -11 0 -15 12 -15 50 0 38
4 50 15 50 11 0 15 -12 15 -50z"/>
<path d="M1270 900 l0 -60 30 0 30 0 0 60 0 60 -30 0 -30 0 0 -60z m40 0 c0
-38 -4 -50 -15 -50 -11 0 -15 12 -15 50 0 38 4 50 15 50 11 0 15 -12 15 -50z"/>
<path d="M1270 765 c0 -43 1 -45 30 -45 29 0 30 2 30 45 0 43 -1 45 -30 45
-29 0 -30 -2 -30 -45z m50 0 c0 -28 -4 -35 -20 -35 -16 0 -20 7 -20 35 0 28 4
35 20 35 16 0 20 -7 20 -35z"/>
<path d="M130 891 l0 -61 35 0 36 0 -3 58 c-3 56 -3 57 -35 60 l-33 3 0 -60z
m50 -1 c0 -43 -3 -50 -20 -50 -17 0 -20 7 -20 50 0 43 3 50 20 50 17 0 20 -7
20 -50z"/>
<path d="M210 890 l0 -60 35 0 35 0 0 60 0 60 -35 0 -35 0 0 -60z m60 0 c0
-47 -2 -50 -25 -50 -23 0 -25 4 -25 43 0 48 5 57 32 57 15 0 18 -8 18 -50z"/>
<path d="M300 890 l0 -60 35 0 35 0 0 60 0 60 -35 0 -35 0 0 -60z m60 0 c0
-47 -2 -50 -25 -50 -23 0 -25 3 -25 50 0 47 2 50 25 50 23 0 25 -3 25 -50z"/>
<path d="M390 890 l0 -60 35 0 35 0 0 60 0 60 -35 0 -35 0 0 -60z m60 0 c0
-47 -2 -50 -25 -50 -23 0 -25 3 -25 50 0 47 2 50 25 50 23 0 25 -3 25 -50z"/>
<path d="M580 890 l0 -60 40 0 40 0 0 60 0 60 -40 0 -40 0 0 -60z m60 -1 c0
-47 -2 -50 -22 -47 -18 2 -24 11 -26 36 -4 45 3 62 28 62 17 0 20 -6 20 -51z"/>
<path d="M703 890 c0 -36 2 -50 4 -32 2 17 2 47 0 65 -2 17 -4 3 -4 -33z"/>
<path d="M534 786 c-9 -23 0 -69 14 -72 7 -1 8 0 2 3 -14 7 -12 70 3 76 9 4 9
6 -1 6 -7 1 -15 -5 -18 -13z"/>
<path d="M580 755 c0 -45 0 -45 35 -45 35 0 35 0 35 45 0 45 0 45 -35 45 -35
0 -35 0 -35 -45z m60 -1 c0 -31 -3 -35 -22 -32 -39 5 -37 68 2 68 16 0 20 -6
20 -36z"/>
<path d="M1902 888 l2 -63 3 55 c3 30 10 58 16 62 8 5 6 8 -5 8 -16 0 -18 -9
-16 -62z"/>
<path d="M1950 890 l0 -60 40 0 40 0 0 60 0 60 -40 0 -40 0 0 -60z m65 0 c0
-39 -3 -45 -22 -48 -21 -3 -23 0 -23 48 0 48 2 51 23 48 19 -3 22 -9 22 -48z"/>
<path d="M1960 756 c0 -46 0 -46 36 -46 l35 0 -3 43 c-3 39 -5 42 -35 45 -33
3 -33 3 -33 -42z m58 -3 c-2 -20 -9 -29 -25 -31 -20 -3 -23 1 -23 27 0 27 4
31 26 31 22 0 25 -4 22 -27z"/>
<path d="M2070 756 c0 -19 -6 -37 -12 -39 -8 -3 -6 -6 5 -6 13 -1 17 7 17 39
0 22 -2 40 -5 40 -3 0 -5 -15 -5 -34z"/>
<path d="M2150 890 l0 -60 35 0 35 0 0 60 0 60 -35 0 -35 0 0 -60z m60 0 c0
-47 -2 -50 -25 -50 -23 0 -25 4 -25 43 0 48 5 57 32 57 15 0 18 -8 18 -50z"/>
<path d="M2240 890 l0 -60 35 0 35 0 0 60 0 60 -35 0 -35 0 0 -60z m58 -2 c3
-46 2 -48 -22 -48 -24 0 -26 3 -26 51 0 47 2 50 23 47 19 -3 22 -10 25 -50z"/>
<path d="M2330 890 l0 -60 35 0 35 0 0 60 0 60 -35 0 -35 0 0 -60z m58 -2 c3
-46 2 -48 -22 -48 -24 0 -26 3 -26 51 0 47 2 50 23 47 19 -3 22 -10 25 -50z"/>
<path d="M2417 943 c-4 -3 -7 -30 -7 -60 l0 -53 35 0 35 0 0 60 c0 59 0 60
-28 60 -16 0 -32 -3 -35 -7z m53 -53 c0 -43 -3 -50 -20 -50 -17 0 -20 7 -20
50 0 43 3 50 20 50 17 0 20 -7 20 -50z"/>
<path d="M2500 1441 c0 -16 6 -21 26 -21 33 0 30 33 -4 38 -17 3 -22 -2 -22
-17z m40 -1 c0 -5 -7 -10 -15 -10 -8 0 -15 5 -15 10 0 6 7 10 15 10 8 0 15 -4
15 -10z"/>
<path d="M2587 1453 c-10 -9 -9 -33 1 -33 4 0 8 9 9 20 2 21 0 24 -10 13z"/>
<path d="M10 1380 c13 -9 13 -11 0 -20 -13 -8 -12 -10 3 -10 10 0 17 8 17 20
0 12 -7 20 -17 20 -15 0 -16 -2 -3 -10z"/>
<path d="M60 1370 c0 -15 7 -20 25 -20 18 0 25 5 25 20 0 15 -7 20 -25 20 -18
0 -25 -5 -25 -20z m40 0 c0 -5 -7 -10 -15 -10 -8 0 -15 5 -15 10 0 6 7 10 15
10 8 0 15 -4 15 -10z"/>
<path d="M2500 1370 c0 -15 7 -20 25 -20 18 0 25 5 25 20 0 15 -7 20 -25 20
-18 0 -25 -5 -25 -20z m40 0 c0 -5 -7 -10 -15 -10 -8 0 -15 5 -15 10 0 6 7 10
15 10 8 0 15 -4 15 -10z"/>
<path d="M2580 1370 c0 -11 4 -20 8 -20 4 0 8 9 8 20 0 11 -4 20 -8 20 -4 0
-8 -9 -8 -20z"/>
<path d="M9 1316 c9 -11 9 -15 -1 -19 -8 -4 -7 -6 5 -6 11 -1 17 6 17 19 0 12
-7 20 -16 20 -13 0 -14 -3 -5 -14z"/>
<path d="M60 1310 c0 -15 7 -20 25 -20 18 0 25 5 25 20 0 15 -7 20 -25 20 -18
0 -25 -5 -25 -20z m40 0 c0 -5 -7 -10 -15 -10 -8 0 -15 5 -15 10 0 6 7 10 15
10 8 0 15 -4 15 -10z"/>
<path d="M2500 1305 c0 -20 5 -25 25 -25 20 0 25 5 25 25 0 20 -5 25 -25 25
-20 0 -25 -5 -25 -25z m40 5 c0 -5 -7 -10 -15 -10 -8 0 -15 5 -15 10 0 6 7 10
15 10 8 0 15 -4 15 -10z"/>
<path d="M2580 1311 c0 -11 4 -22 9 -25 5 -3 9 6 9 19 0 14 -4 25 -9 25 -5 0
-9 -9 -9 -19z"/>
<path d="M7 1259 c9 -9 10 -16 2 -26 -9 -10 -7 -13 5 -13 22 0 18 41 -4 48
-12 4 -13 2 -3 -9z"/>
<path d="M60 1245 c0 -20 5 -25 25 -25 20 0 25 5 25 25 0 20 -5 25 -25 25 -20
0 -25 -5 -25 -25z m40 -6 c0 -5 -7 -9 -15 -9 -15 0 -20 12 -9 23 8 8 24 -1 24
-14z"/>
<path d="M2500 1245 c0 -20 5 -25 25 -25 20 0 25 5 25 25 0 20 -5 25 -25 25
-20 0 -25 -5 -25 -25z m40 -5 c0 -5 -7 -10 -15 -10 -8 0 -15 5 -15 10 0 6 7
10 15 10 8 0 15 -4 15 -10z"/>
<path d="M2587 1263 c-10 -9 -8 -43 2 -43 5 0 9 11 9 25 0 27 -1 28 -11 18z"/>
<path d="M2537 1044 c-4 -4 -7 -18 -7 -31 0 -19 5 -23 31 -23 27 0 30 3 27 28
-3 26 -34 43 -51 26z m43 -24 c0 -11 -6 -20 -14 -20 -18 0 -29 16 -21 30 11
18 35 11 35 -10z"/>
<path d="M10 935 c0 -21 5 -25 30 -25 25 0 30 4 30 25 0 21 -5 25 -30 25 -25
0 -30 -4 -30 -25z m45 -5 c-3 -5 -13 -10 -21 -10 -8 0 -14 5 -14 10 0 6 9 10
21 10 11 0 17 -4 14 -10z"/>
<path d="M2540 930 c0 -16 7 -20 30 -20 23 0 30 4 30 20 0 16 -7 20 -30 20
-23 0 -30 -4 -30 -20z m50 0 c0 -5 -9 -10 -20 -10 -11 0 -20 5 -20 10 0 6 9
10 20 10 11 0 20 -4 20 -10z"/>
<path d="M10 860 c0 -38 2 -40 30 -40 28 0 30 2 30 40 0 38 -2 40 -30 40 -28
0 -30 -2 -30 -40z m50 0 c0 -23 -4 -30 -20 -30 -16 0 -20 7 -20 30 0 23 4 30
20 30 16 0 20 -7 20 -30z"/>
<path d="M2540 855 c0 -43 1 -45 30 -45 29 0 30 2 30 45 0 43 -1 45 -30 45
-29 0 -30 -2 -30 -45z m50 5 c0 -23 -4 -30 -20 -30 -16 0 -20 7 -20 30 0 23 4
30 20 30 16 0 20 -7 20 -30z"/>
<path d="M10 780 c0 -16 7 -20 30 -20 23 0 30 4 30 20 0 16 -7 20 -30 20 -23
0 -30 -4 -30 -20z m50 0 c0 -5 -9 -10 -20 -10 -11 0 -20 5 -20 10 0 6 9 10 20
10 11 0 20 -4 20 -10z"/>
<path d="M2540 780 c0 -16 7 -20 30 -20 23 0 30 4 30 20 0 16 -7 20 -30 20
-23 0 -30 -4 -30 -20z m50 0 c0 -5 -9 -10 -20 -10 -11 0 -20 5 -20 10 0 6 9
10 20 10 11 0 20 -4 20 -10z"/>
<path d="M2540 730 c0 -16 7 -20 30 -20 23 0 30 4 30 20 0 16 -7 20 -30 20
-23 0 -30 -4 -30 -20z m50 0 c0 -5 -9 -10 -20 -10 -11 0 -20 5 -20 10 0 6 9
10 20 10 11 0 20 -4 20 -10z"/>
</g>
</svg>
